<svg xmlns="http://www.w3.org/2000/svg" xml:space="preserve" id="crm" x="0" y="0" version="1.1" viewBox="0 0 100 100">
  <path d="M2 2h96v96H2z" style="fill:#a35bb4"></path>
  <path d="M72.499 29.769h-45a2.68 2.68 0 0 0-2.68 2.68v6.29l2 2h-2v26.82c0 .83.39 1.56.98 2.05h-.02L54.179 98H98V54.171L74.539 30.72c-.51-.58-1.22-.95-2.04-.95z" style="fill:#76418f"></path>
  <path d="M24.82 67.554c0 1.48 1.2 2.68 2.68 2.68h9.403v-29.5H24.82v26.82zm4.458-24.236h5.167a1 1 0 1 1 0 2h-5.167a1 1 0 1 1 0-2zm0 4.166h5.167a1 1 0 1 1 0 2h-5.167a1 1 0 1 1 0-2zm0 4.167h5.167a1 1 0 1 1 0 2h-5.167a1 1 0 1 1 0-2zm0 4.167h1.709a1 1 0 1 1 0 2h-1.709a1 1 0 1 1 0-2zm0 4.166h1.709a1 1 0 1 1 0 2h-1.709a1 1 0 1 1 0-2zM53.444 50.11c-.59 0-1.01.057-1.206.113v3.452h1.249c1.305 0 2.133-.716 2.133-1.796 0-1.22-.884-1.755-2.176-1.768z" style="fill:#fff"></path>
  <path d="M38.903 40.734v29.5H72.5c1.48 0 2.68-1.2 2.68-2.68v-26.82H38.903zm8.334 17.081c.744 0 1.502-.155 1.993-.393l.253.969c-.45.224-1.347.449-2.498.449-2.667 0-4.674-1.685-4.674-4.786 0-2.961 2.007-4.968 4.94-4.968 1.18 0 1.923.253 2.245.421l-.294.997c-.463-.225-1.122-.393-1.909-.393-2.216 0-3.69 1.417-3.69 3.9 0 2.316 1.333 3.804 3.634 3.804zm8.678.884c-.156-.267-.366-1.08-.632-2.26-.281-1.305-.786-1.796-1.895-1.838h-1.15V58.7h-1.222v-9.332c.618-.126 1.502-.197 2.344-.197 1.306 0 2.147.24 2.737.772.477.421.743 1.067.743 1.796 0 1.25-.786 2.077-1.782 2.414v.042c.73.253 1.165.927 1.39 1.909.308 1.32.533 2.23.73 2.596h-1.263zm10.866 0-.24-4.154c-.069-1.319-.154-2.905-.14-4.083h-.042a56.418 56.418 0 0 1-1.192 3.592l-1.67 4.59h-.926l-1.53-4.506c-.45-1.333-.829-2.554-1.095-3.676h-.028a127.899 127.899 0 0 1-.182 4.181l-.253 4.056h-1.165l.66-9.458h1.558l1.613 4.574c.393 1.165.716 2.204.954 3.186h.043c.239-.954.576-1.993.996-3.186l1.684-4.574h1.558l.59 9.458H66.78zM73.178 38.734h2v-6.29a2.682 2.682 0 0 0-2.68-2.678h-45a2.682 2.682 0 0 0-2.678 2.679v6.29h48.358zm-32.629-4.69c.37-.37 1.04-.37 1.42 0 .181.19.29.44.29.71 0 .26-.109.51-.29.7-.189.19-.449.3-.71.3-.27 0-.52-.11-.71-.3a.968.968 0 0 1-.29-.7c0-.27.101-.52.29-.71zm-5.199 0c.37-.37 1.05-.37 1.41 0 .19.19.29.44.29.71 0 .26-.1.52-.29.7a.975.975 0 0 1-1.41 0 .975.975 0 0 1 0-1.41zm-5.21 0c.38-.38 1.05-.37 1.42 0 .19.18.29.44.29.71 0 .26-.1.52-.29.7-.19.19-.45.3-.71.3-.26 0-.52-.11-.71-.29-.18-.19-.29-.45-.29-.71 0-.27.11-.53.29-.71z" style="fill:#fff"></path>
</svg>
