<?xml version="1.0" encoding="iso-8859-1"?>
<!-- Uploaded to: SVG Repo, www.svgrepo.com, Generator: SVG Repo Mixer Tools -->
<svg height="800px" width="800px" version="1.1" id="Layer_1" xmlns="http://www.w3.org/2000/svg" xmlns:xlink="http://www.w3.org/1999/xlink" 
	 viewBox="0 0 504 504" xml:space="preserve">
<circle style="fill:#FFD05B;" cx="252" cy="252" r="252"/>
<polygon style="fill:#2B3B4E;" points="186.8,361.2 162,361.2 162,150.8 409.6,110.4 409.6,324.8 384.4,324.8 384.4,198.8 
	186.8,231.2 "/>
<g>
	<path style="fill:#F1543F;" d="M140.8,342.8c8.4-10.4,19.6-12.4,28-9.2c20,7.6,24.8,36.4,7.6,54.4c-35.6,37.6-35.6,37.6-35.6,37.6
		s0,0-35.6-37.6c-17.2-18-12.4-47.2,7.6-54.4C121.2,330,132.4,332.4,140.8,342.8z"/>
	<path style="fill:#F1543F;" d="M123.2,207.6c5.2-6.4,12.4-7.6,17.6-6c12.4,4.8,15.6,22.4,4.8,34c-22,23.2-22,23.2-22,23.2
		s0,0-22-23.2c-10.8-11.2-7.6-29.2,4.8-34C110.8,200,118,201.2,123.2,207.6z"/>
	<path style="fill:#F1543F;" d="M363.2,307.2c8.4-10.4,19.6-12.4,28-9.2c20,7.6,24.8,36.4,7.6,54.4C363.2,390,363.2,390,363.2,390
		s0,0-35.6-37.6c-17.2-18-12.4-47.2,7.6-54.4C343.6,294.4,354.8,296.8,363.2,307.2z"/>
</g>
</svg>