<?xml version="1.0" encoding="iso-8859-1"?>
<!-- Uploaded to: SVG Repo, www.svgrepo.com, Generator: SVG Repo Mixer Tools -->
<svg version="1.1" id="Layer_1" xmlns="http://www.w3.org/2000/svg" xmlns:xlink="http://www.w3.org/1999/xlink" 
	 viewBox="0 0 512 512" xml:space="preserve">
<path style="fill:#FFFFFF;" d="M327.999,432v-96h-16v96c0,4.424-3.576,8-8,8h-8v56h48v-56h-8
	C331.574,440,327.999,436.424,327.999,432z"/>
<g>
	<rect x="343.999" y="336" style="fill:#9FC7D1;" width="16" height="88"/>
	<rect x="279.999" y="336" style="fill:#9FC7D1;" width="16" height="88"/>
	<rect x="407.999" y="336" style="fill:#9FC7D1;" width="16" height="88"/>
</g>
<g>
	<path style="fill:#FFFFFF;" d="M447.999,336h-8v96c0,4.424-3.576,8-8,8h-8v56h24c13.232,0,24-10.768,24-24V360
		C471.999,346.768,461.23,336,447.999,336z"/>
	<path style="fill:#FFFFFF;" d="M391.999,432v-96h-16v96c0,4.424-3.576,8-8,8h-8v56h48v-56h-8
		C395.574,440,391.999,436.424,391.999,432z"/>
	<path style="fill:#FFFFFF;" d="M263.999,432v-96h-32v160h48v-56h-8C267.574,440,263.999,436.424,263.999,432z"/>
	<path style="fill:#FFFFFF;" d="M71.999,432v-96h-8c-13.232,0-24,10.768-24,24v112c0,13.232,10.768,24,24,24h24v-56h-8
		C75.575,440,71.999,436.424,71.999,432z"/>
</g>
<g>
	<rect x="87.999" y="336" style="fill:#9FC7D1;" width="16" height="88"/>
	<rect x="151.998" y="336" style="fill:#9FC7D1;" width="16" height="88"/>
</g>
<g>
	<path style="fill:#FFFFFF;" d="M183.998,432c0,4.424-3.576,8-8,8h-8v56h48V336h-32V432z"/>
	<path style="fill:#FFFFFF;" d="M135.998,432v-96h-16v96c0,4.424-3.576,8-8,8h-8v56h48v-56h-8
		C139.574,440,135.998,436.424,135.998,432z"/>
</g>
<g>
	<path style="fill:#E87B5A;" d="M479.439,145.792l-11.272,7.512c-2.688,1.8-6.184,1.8-8.872,0l-11.28-7.512
		c-1.792-1.192-3.856-1.784-5.896-1.784c-2.752,0-5.488,1.064-7.536,3.12c-4.152,4.152-4.152,10.904,0,15.056l29.16,29.16
		l29.16-29.16c4.144-4.152,4.144-10.904,0-15.064C489.302,143.552,483.655,142.984,479.439,145.792z"/>
	<path style="fill:#E87B5A;" d="M344.007,185.792c-1.792-1.192-3.856-1.784-5.896-1.784c-2.752,0-5.488,1.064-7.536,3.12
		c-4.152,4.152-4.152,10.904,0,15.056l29.16,29.16l29.16-29.16c4.144-4.152,4.144-10.904,0-15.064
		c-3.576-3.56-9.216-4.128-13.448-1.328l-11.272,7.512c-2.688,1.8-6.184,1.8-8.872,0L344.007,185.792z"/>
</g>
<polygon style="fill:#EEC97B;" points="215.998,89 95.999,103.12 95.999,127 215.998,112.888 "/>
<g>
	<path style="fill:#E87B5A;" d="M207.438,225.792l-11.272,7.512c-2.688,1.8-6.176,1.8-8.864,0l-11.264-7.512
		c-1.792-1.192-3.816-1.784-5.864-1.784c-2.752,0-5.416,1.064-7.472,3.12c-4.152,4.152-4.016,10.904,0.128,15.056l29.416,29.16
		l15.76-15.24V256h-1l13.888-13.856c4.152-4.152,4.152-10.872,0-15.032C217.302,223.552,211.671,222.984,207.438,225.792z"/>
	<path style="fill:#E87B5A;" d="M84.887,258.176c4.144-4.152,4.144-10.904,0-15.064c-3.576-3.56-9.216-4.136-13.448-1.328
		l-11.272,7.512c-2.688,1.8-6.184,1.8-8.872,0l-11.28-7.512c-1.792-1.192-3.856-1.784-5.896-1.784c-2.752,0-5.488,1.064-7.536,3.12
		c-4.152,4.152-4.152,10.904,0,15.056l29.16,29.16L84.887,258.176z"/>
	<path style="fill:#E87B5A;" d="M48.271,71.336l29.16-29.152c4.152-4.152,4.152-10.904,0-15.064
		c-3.592-3.568-9.232-4.136-13.44-1.328l-11.28,7.512c-2.688,1.8-6.184,1.8-8.872,0l-11.28-7.512
		c-1.792-1.2-3.848-1.784-5.896-1.784c-2.76,0-5.496,1.064-7.544,3.12c-4.152,4.152-4.152,10.904,0,15.056L48.271,71.336z"/>
</g>
<g>
	<path style="fill:#3C4A53;" d="M447.999,320h-16h-32h-32h-32h-32h-32h-96h-32h-32h-32h-16c-22.056,0-40,17.944-40,40v112
		c0,22.056,17.944,40,40,40h384c22.056,0,40-17.944,40-40V360C487.999,337.944,470.055,320,447.999,320z M87.999,496h-24
		c-13.232,0-24-10.768-24-24V360c0-13.232,10.768-24,24-24h8v96c0,4.424,3.576,8,8,8h8V496z M87.999,336h16v88h-16V336z
		 M151.998,496h-48v-56h8c4.424,0,8-3.576,8-8v-96h16v96c0,4.424,3.576,8,8,8h8V496z M151.998,336h16v88h-16V336z M215.998,496h-48
		v-56h8c4.424,0,8-3.576,8-8v-96h32V496z M279.999,496h-48V336h32v96c0,4.424,3.576,8,8,8h8V496z M279.999,336h16v88h-16V336z
		 M343.999,496h-48v-56h8c4.424,0,8-3.576,8-8v-96h16v96c0,4.424,3.576,8,8,8h8V496z M343.999,336h16v88h-16V336z M407.999,496h-48
		v-56h8c4.424,0,8-3.576,8-8v-96h16v96c0,4.424,3.576,8,8,8h8V496z M407.999,336h16v88h-16V336z M471.999,472
		c0,13.232-10.768,24-24,24h-24v-56h8c4.424,0,8-3.576,8-8v-96h8c13.232,0,24,10.768,24,24V472z"/>
	<path style="fill:#3C4A53;" d="M55.727,306.648c2.048,0,4.096-0.784,5.656-2.344l34.808-34.816
		c10.384-10.384,10.392-27.288,0-37.696c-0.064-0.064-0.136-0.104-0.192-0.16v-88.52l120-14.12v79.16
		c-5.976-0.6-12.16,0.8-17.44,4.32l-6.832,4.552l-6.84-4.552c-10.544-7.024-24.68-5.624-33.624,3.328
		c-10.392,10.4-10.384,27.304,0,37.688l34.816,34.816c1.56,1.56,3.608,2.344,5.656,2.344s4.096-0.784,5.656-2.344l17.088-17.088
		l54.68-7.152c2.8-0.32,5.496,0.52,7.584,2.392c2.112,1.864,3.264,4.448,3.264,7.256c0,7.376,3.168,14.408,8.696,19.28
		c4.728,4.168,10.8,6.44,17.024,6.44c1.064,0,2.128-0.064,3.184-0.192l44.088-5.504l-1.984-15.872l-44.088,5.504
		c-2.808,0.376-5.512-0.488-7.632-2.36c-2.128-1.872-3.288-4.464-3.288-7.288c0-7.336-3.152-14.344-8.632-19.216
		c-5.48-4.88-12.824-7.208-20.192-6.304l-34.32,4.488c9.64-10.432,9.48-26.728-0.664-36.888c-0.064-0.064-0.136-0.104-0.192-0.16V80
		c0-2.28-0.976-4.464-2.688-5.976c-1.704-1.52-3.984-2.24-6.248-1.968l-136,16c-4.024,0.48-7.064,3.888-7.064,7.944v128.16
		c-5.976-0.6-12.16,0.8-17.44,4.312l-6.832,4.552l-6.848-4.544c-10.544-7.016-24.68-5.616-33.624,3.328
		c-10.392,10.4-10.384,27.304,0,37.688l34.816,34.816C51.631,305.864,53.679,306.648,55.727,306.648z M220.886,242.144L206.998,256
		h1v0.096l-15.76,15.24l-29.416-29.16c-4.152-4.152-4.28-10.904-0.128-15.056c2.056-2.056,4.728-3.12,7.472-3.12
		c2.048,0,4.08,0.584,5.864,1.784l11.264,7.512c2.688,1.8,6.176,1.8,8.864,0l11.272-7.512c4.224-2.808,9.864-2.232,13.44,1.328
		C225.031,231.272,225.031,238,220.886,242.144z M95.999,103.12l120-14.12v23.888l-120,14.12
		C95.999,127.008,95.999,103.12,95.999,103.12z M26.567,243.128c2.056-2.056,4.792-3.12,7.536-3.12c2.048,0,4.112,0.584,5.896,1.784
		l11.28,7.512c2.688,1.8,6.184,1.8,8.872,0l11.272-7.512c4.224-2.808,9.864-2.232,13.448,1.328c4.144,4.16,4.144,10.912,0,15.064
		l-29.16,29.16l-29.16-29.16C22.423,254.032,22.423,247.272,26.567,243.128z"/>
	<path style="fill:#3C4A53;" d="M42.614,88.304c1.56,1.56,3.608,2.344,5.656,2.344c2.048,0,4.096-0.784,5.656-2.344l34.816-34.816
		c10.384-10.384,10.392-27.288,0-37.696c-8.96-8.936-23.088-10.336-33.624-3.312l-6.848,4.552l-6.832-4.552
		C30.903,5.464,16.767,6.848,7.807,15.808c-10.392,10.4-10.384,27.304,0,37.688L42.614,88.304z M19.119,27.128
		c2.056-2.056,4.792-3.12,7.544-3.12c2.048,0,4.104,0.584,5.896,1.784l11.272,7.512c2.688,1.8,6.184,1.8,8.872,0l11.28-7.512
		c4.2-2.808,9.84-2.24,13.44,1.328c4.152,4.16,4.152,10.912,0,15.064L48.271,71.336L19.119,42.184
		C14.967,38.032,14.967,31.272,19.119,27.128z"/>
	<path style="fill:#3C4A53;" d="M352.887,172.48c-10.544-7.024-24.68-5.616-33.624,3.328c-10.392,10.4-10.384,27.304,0,37.688
		l34.816,34.816c1.56,1.56,3.608,2.344,5.656,2.344s4.096-0.784,5.656-2.344l34.808-34.816c10.384-10.384,10.392-27.288,0-37.696
		c-0.064-0.064-0.136-0.104-0.192-0.16V40h-16v128.16c-5.976-0.6-12.16,0.8-17.44,4.32l-6.832,4.552L352.887,172.48z
		 M364.167,193.304l11.272-7.512c4.224-2.8,9.864-2.232,13.448,1.328c4.144,4.16,4.144,10.912,0,15.064l-29.16,29.16l-29.16-29.16
		c-4.152-4.152-4.152-10.904,0-15.056c2.056-2.056,4.792-3.12,7.536-3.12c2.048,0,4.112,0.584,5.896,1.784l11.28,7.512
		C357.974,195.104,361.478,195.104,364.167,193.304z"/>
	<path style="fill:#3C4A53;" d="M504.198,135.8c-0.064-0.064-0.136-0.104-0.192-0.16V0h-16v128.16c-5.976-0.6-12.16,0.8-17.44,4.312
		l-6.832,4.552l-6.84-4.552c-10.544-7.016-24.68-5.616-33.624,3.328c-10.392,10.4-10.384,27.304,0,37.688l34.816,34.816
		c1.56,1.56,3.608,2.344,5.656,2.344s4.096-0.784,5.656-2.344l34.808-34.816C514.575,163.112,514.583,146.2,504.198,135.8z
		 M492.887,162.176l-29.16,29.16l-29.16-29.16c-4.152-4.152-4.152-10.904,0-15.056c2.056-2.056,4.792-3.12,7.536-3.12
		c2.048,0,4.112,0.584,5.896,1.784l11.28,7.512c2.688,1.8,6.192,1.8,8.872,0l11.272-7.512c4.216-2.808,9.864-2.232,13.448,1.328
		C497.03,151.272,497.03,158.032,492.887,162.176z"/>
	<path style="fill:#3C4A53;" d="M277.15,16.072c2.8-0.328,5.488,0.52,7.584,2.392c2.112,1.864,3.264,4.448,3.264,7.256
		c0,7.376,3.168,14.408,8.696,19.28c4.728,4.176,10.8,6.44,17.024,6.44c1.064,0,2.128-0.064,3.184-0.192l44.088-5.504l-1.984-15.872
		l-44.088,5.504c-2.8,0.376-5.512-0.496-7.632-2.36c-2.128-1.872-3.288-4.464-3.288-7.288c0-7.336-3.152-14.344-8.632-19.216
		c-5.48-4.872-12.76-7.16-20.096-6.32L159.063,13.848l1.872,15.888L277.15,16.072z"/>
	<polygon style="fill:#3C4A53;" points="439.999,232 439.999,256 415.999,256 415.999,272 439.999,272 439.999,296 455.999,296 
		455.999,272 479.999,272 479.999,256 455.999,256 455.999,232 	"/>
	<rect x="247.998" y="72" style="fill:#3C4A53;" width="16" height="16"/>
	<rect x="247.998" y="104" style="fill:#3C4A53;" width="16" height="16"/>
	<rect x="247.998" y="136" style="fill:#3C4A53;" width="16" height="16"/>
</g>
</svg>