<?xml version="1.0" encoding="iso-8859-1"?>
<!-- Uploaded to: SVG Repo, www.svgrepo.com, Generator: SVG Repo Mixer Tools -->
<svg version="1.1" id="Layer_1" xmlns="http://www.w3.org/2000/svg" xmlns:xlink="http://www.w3.org/1999/xlink" 
	 viewBox="0 0 511.998 511.998" xml:space="preserve">
<g>
	<path style="fill:#C60024;" d="M133.385,333.489c-12.793,0-23.899,7.21-29.486,17.785c-0.011,0.021-0.024,0.041-0.035,0.062
		c-5.576-10.61-16.702-17.848-29.521-17.848c-18.407,0-32.824,14.922-32.824,33.33c0,8.712,2.528,13.631,4.573,17.775
		c8.444,17.108,57.771,57.982,57.771,57.982s0.012-0.01,0.035-0.029c1.473-1.216,49.808-41.222,57.736-57.953
		c1.966-4.151,4.644-9.446,4.644-17.775C166.28,348.411,151.792,333.489,133.385,333.489z"/>
	<path style="fill:#C60024;" d="M133.385,333.489c-12.793,0-23.899,7.21-29.486,17.785c-0.011,0.021-0.024,0.041-0.035,0.062
		c-5.576-10.61-16.702-17.848-29.521-17.848c-18.407,0-32.824,14.922-32.824,33.33c0,8.712,2.528,13.631,4.573,17.775
		c8.444,17.108,57.771,57.982,57.771,57.982s0.012-0.01,0.035-0.029c1.473-1.216,49.808-41.222,57.736-57.953
		c1.966-4.151,4.644-9.446,4.644-17.775C166.28,348.411,151.792,333.489,133.385,333.489z"/>
</g>
<polygon style="fill:#77767E;" points="166.28,91.324 166.28,114.462 166.28,170.879 403.954,230.545 403.954,174.128 
	403.954,150.99 "/>
<polygon style="fill:#57565C;" points="166.28,91.324 166.28,114.462 403.954,174.128 403.954,150.99 "/>
<path style="fill:#C60024;" d="M371.06,393.155c-12.793,0-23.899,7.21-29.486,17.785c-0.011,0.021-0.024,0.041-0.035,0.062
	c-5.576-10.61-16.702-17.848-29.521-17.848c-18.407,0-32.824,14.922-32.824,33.33c0,8.712,2.528,13.631,4.573,17.775
	c8.444,17.108,57.771,57.982,57.771,57.982s0.012-0.01,0.035-0.029c1.475-1.218,49.809-41.222,57.736-57.953
	c1.966-4.151,4.644-9.446,4.644-17.775C403.954,408.077,389.467,393.155,371.06,393.155z"/>
<g>
	<path style="fill:#A50020;" d="M371.06,393.155c-12.793,0-23.899,7.21-29.486,17.785v91.273
		c1.475-1.218,49.809-41.222,57.736-57.953c1.966-4.151,4.644-9.446,4.644-17.775C403.954,408.077,389.467,393.155,371.06,393.155z"
		/>
	<path style="fill:#A50020;" d="M133.385,333.489c-12.793,0-23.899,7.21-29.486,17.785v91.273
		c1.473-1.216,49.808-41.222,57.736-57.953c1.966-4.151,4.644-9.446,4.644-17.775C166.28,348.411,151.792,333.489,133.385,333.489z"
		/>
</g>
<g>
	<polygon style="fill:#D80029;" points="418.615,75.917 398.637,55.938 409.271,45.305 418.615,54.648 427.87,45.392 
		438.505,56.028 	"/>
	<polygon style="fill:#D80029;" points="160.213,501.48 140.236,481.501 150.87,470.866 160.213,480.21 169.467,470.955 
		180.103,481.591 	"/>
	<polygon style="fill:#D80029;" points="26.948,220.321 6.97,200.345 17.604,189.708 26.948,199.051 36.202,189.797 46.838,200.432 
			"/>
	<polygon style="fill:#D80029;" points="279.285,298.023 259.307,278.045 269.941,267.41 279.285,276.754 288.54,267.499 
		299.175,278.135 	"/>
</g>
<g>
	<circle style="fill:#FFFFFF;" cx="106.653" cy="94.211" r="11.059"/>
	
		<rect x="72.459" y="23.767" transform="matrix(-0.7071 0.7071 -0.7071 -0.7071 187.802 -8.2295)" style="fill:#FFFFFF;" width="46.293" height="22.027"/>
	<circle style="fill:#FFFFFF;" cx="486.455" cy="286.834" r="11.059"/>
</g>
<path d="M39.351,387.924c8.898,18.025,54.541,56.156,59.716,60.443l4.786,3.967l4.796-3.954
	c5.222-4.305,51.261-42.578,59.783-60.565l0.229-0.48c2.047-4.305,5.14-10.812,5.14-20.515c0-0.907-0.04-1.806-0.098-2.698h0.098
	V180.52l222.634,55.89v158.312c-6.943-5.677-15.77-9.087-25.375-9.087c-11.342,0-21.928,4.65-29.521,12.599
	c-7.592-7.949-18.178-12.599-29.521-12.599c-22.246,0-40.344,18.325-40.344,40.85c0,10.276,3.014,16.377,5.216,20.832l0.135,0.272
	c8.898,18.026,54.541,56.157,59.716,60.444l4.786,3.967l4.796-3.954c5.222-4.305,51.261-42.578,59.783-60.565l0.229-0.48
	c2.047-4.305,5.14-10.812,5.14-20.515c0-0.907-0.04-1.806-0.098-2.698h0.098v-183.6v-89.195v-5.866L158.76,81.684v9.641v85.42
	v158.312c-6.942-5.677-15.77-9.087-25.375-9.087c-11.342,0-21.928,4.65-29.521,12.598c-7.592-7.948-18.178-12.598-29.521-12.598
	c-22.246,0-40.344,18.325-40.344,40.85c0,10.276,3.014,16.377,5.216,20.83L39.351,387.924z M392.751,440.543l-0.237,0.497
	c-4.905,10.352-32.058,35.413-50.96,51.392c-15.694-13.352-45.35-39.965-51.043-51.499l-0.137-0.279
	c-1.882-3.808-3.659-7.406-3.659-14.169c0-14.474,11.115-25.81,25.304-25.81c9.621,0,18.382,5.298,22.864,13.827l6.657,12.667
	l6.657-12.667c4.482-8.529,13.243-13.827,22.864-13.827c14.229,0,25.375,11.337,25.375,25.81
	C396.434,432.795,394.561,436.733,392.751,440.543z M173.8,100.965l222.634,55.891v64.048L173.8,165.014V100.965z M74.344,341.009
	c9.622,0,18.382,5.297,22.864,13.826l6.657,12.667l6.657-12.667c4.482-8.529,13.242-13.826,22.864-13.826
	c14.229,0,25.375,11.337,25.375,25.81c0,6.31-1.873,10.248-3.683,14.058l-0.237,0.497c-4.905,10.352-32.058,35.413-50.96,51.392
	c-15.694-13.352-45.35-39.965-51.043-51.499l-0.137-0.279c-1.882-3.808-3.659-7.406-3.659-14.169
	C49.04,352.346,60.155,341.009,74.344,341.009z"/>
<path d="M81.707,64.26l14.556,14.555c-0.973,0.66-1.892,1.412-2.741,2.261c-7.242,7.243-7.242,19.029,0,26.272
	c3.509,3.508,8.174,5.44,13.136,5.44c4.962,0,9.628-1.932,13.136-5.44c3.509-3.509,5.441-8.174,5.441-13.137
	s-1.932-9.628-5.441-13.137L97.659,58.942l32.731-32.731L104.181,0L60.814,43.367L81.707,64.26L81.707,64.26z M104.155,91.711
	c0.901-0.901,1.954-1.036,2.502-1.036c0.547,0,1.6,0.134,2.502,1.036c0.901,0.9,1.036,1.953,1.036,2.501s-0.134,1.6-1.036,2.501
	c-0.901,0.901-1.954,1.036-2.502,1.036c-0.547,0-1.6-0.134-2.501-1.035C102.777,95.334,102.777,93.09,104.155,91.711z
	 M104.181,21.27l4.941,4.941L87.024,48.308l-4.941-4.941L104.181,21.27z"/>
<path d="M476.056,271.438c-0.973,0.66-1.892,1.412-2.741,2.261c-7.242,7.243-7.242,19.029,0,26.272
	c3.509,3.508,8.174,5.44,13.136,5.44c4.962,0,9.628-1.932,13.136-5.44c3.509-3.509,5.441-8.174,5.441-13.137
	s-1.932-9.628-5.441-13.137l-28.486-28.486c3.37-0.293,7.185-1.442,10.621-4.877c4.503-4.503,6.037-9.276,7.269-13.111
	c0.96-2.987,1.652-5.145,3.585-7.077c1.313-1.313,3.227-2.2,5.852-2.713l-2.885-14.76c-5.578,1.09-10.154,3.391-13.602,6.838
	c-4.503,4.503-6.037,9.276-7.269,13.111c-0.96,2.987-1.652,5.145-3.585,7.076c-0.597,0.599-1.086,0.708-4.513,0.406
	c-3.802-0.335-9.547-0.837-14.867,3.335c-1.936,1.518-3.132,3.799-3.281,6.258c-0.149,2.461,0.764,4.871,2.507,6.618
	L476.056,271.438z M483.949,284.335c0.901-0.901,1.954-1.036,2.502-1.036c0.547,0,1.6,0.134,2.502,1.036
	c0.901,0.9,1.036,1.953,1.036,2.501s-0.134,1.6-1.036,2.501c-0.901,0.901-1.954,1.036-2.502,1.036c-0.547,0-1.6-0.134-2.501-1.035
	C482.571,287.957,482.571,285.713,483.949,284.335z"/>
</svg>