<?xml version="1.0" encoding="iso-8859-1"?>
<!-- Uploaded to: SVG Repo, www.svgrepo.com, Generator: SVG Repo Mixer Tools -->
<svg height="800px" width="800px" version="1.1" id="Layer_1" xmlns="http://www.w3.org/2000/svg" xmlns:xlink="http://www.w3.org/1999/xlink" 
	 viewBox="0 0 512.853 512.853" xml:space="preserve">
<g transform="translate(1 1)">
	<path style="fill:#15A143;" d="M365.88,8.387c-75.093,0-136.533,61.44-136.533,136.533c0,23.893,5.973,46.08,16.213,64.853
		l-16.213,71.68l66.56-19.627c20.48,11.947,44.373,19.627,69.973,19.627c75.093,0,136.533-61.44,136.533-136.533
		S441.827,8.387,365.88,8.387"/>
	<path style="fill:#1CD759;" d="M353.933,8.387c-68.267,0-123.733,61.44-123.733,136.533c0,23.893,5.12,46.08,15.36,64.853
		l-16.213,71.68l60.587-19.627c18.773,11.947,40.107,19.627,63.147,19.627c68.267,0,123.733-61.44,123.733-136.533
		S422.2,8.387,353.933,8.387"/>
	<g>
		<path style="fill:#FFDD09;" d="M232.76,453.827c11.947,11.947,24.747,22.187,40.107,30.72
			c49.493,27.307,100.693,28.16,147.627-18.773l21.333-21.333c10.24-10.24,12.8-26.453,5.973-39.253
			c-16.213-30.72-75.947-65.707-75.947-65.707c-13.653-7.68-29.867-8.533-37.547,5.12c0,0-19.627,23.04-24.747,26.453
			c-22.187,15.36-43.52,14.507-64.853-6.827l-48.64-48.64l-48.64-48.64c-21.333-21.333-21.333-41.813-6.827-64.853
			c3.413-5.12,26.453-24.747,26.453-24.747c13.653-7.68,12.8-23.893,5.12-37.547c0,0-34.987-59.733-65.707-75.947
			c-12.8-6.827-28.16-4.267-39.253,5.973L45.88,92.013C2.36,135.533-0.2,182.467,21.133,228.547
			c8.533,18.773,21.333,34.987,35.84,49.493L232.76,453.827z"/>
		<polygon style="fill:#FFDD09;" points="365.88,51.053 272.013,144.92 297.613,170.52 365.88,102.253 365.88,102.253 
			366.733,102.253 434.147,170.52 459.747,144.92 		"/>
		<polygon style="fill:#FFDD09;" points="365.88,102.253 314.68,153.453 314.68,221.72 417.08,221.72 417.08,153.453 		"/>
	</g>
	<path d="M340.28,417.987h-0.853c-58.88-5.973-97.28-43.52-98.133-45.227c-3.413-3.413-3.413-8.533,0-11.947
		c3.413-3.413,8.533-3.413,11.947,0c0,0,35.84,34.987,87.893,40.107c4.267,0.853,7.68,4.267,7.68,9.387
		C348.813,414.573,344.547,417.987,340.28,417.987z"/>
	<path d="M153.4,281.453c-1.707,0-3.413-0.853-5.12-1.707c-1.707-1.707-48.64-40.107-54.613-99.84
		c-0.853-4.267,2.56-8.533,7.68-9.387c5.12-0.853,8.533,2.56,9.387,7.68c5.12,52.053,48.64,87.893,48.64,87.893
		c3.413,2.56,4.267,8.533,0.853,11.947C158.52,280.6,155.96,281.453,153.4,281.453z"/>
	<path d="M338.573,511.853c-22.187,0-45.227-6.827-69.973-20.48c-14.507-7.68-28.16-18.773-41.813-32.427L51.853,284.013
		C35.64,267.8,22.84,249.88,14.307,231.96c-25.6-54.613-17.067-104.107,25.6-146.773L61.24,63.853
		c13.653-12.8,33.28-16.213,49.493-7.68c32.427,17.067,67.413,76.8,69.12,79.36c5.973,11.093,8.533,22.187,5.973,31.573
		c-1.707,6.827-6.827,12.8-12.8,17.067c-10.24,8.533-22.187,19.627-24.747,22.187c-13.653,20.48-11.947,35.84,5.12,53.76
		l98.133,98.133c17.067,17.067,33.28,18.773,53.76,5.12c2.56-1.707,13.653-13.653,22.187-24.747
		c4.267-6.827,10.24-11.093,17.067-12.8c9.387-2.56,21.333-0.853,31.573,5.12c2.56,1.707,62.293,36.693,79.36,69.12
		c8.533,16.213,5.973,36.693-7.68,49.493l-21.333,22.187C399.16,498.2,370.147,511.853,338.573,511.853z M91.107,68.973
		c-5.973,0-12.8,2.56-17.92,6.827L51.853,97.133c-37.547,37.547-45.227,79.36-23.04,127.147
		c7.68,16.213,18.773,32.427,34.133,47.787l175.787,175.787c11.947,11.947,24.747,22.187,37.547,29.013
		c52.053,29.013,97.28,23.04,137.387-17.067L435,438.467c7.68-7.68,9.387-19.627,4.267-29.013
		c-14.507-28.16-72.533-62.293-72.533-62.293c-6.827-3.413-13.653-5.12-18.773-4.267c-3.413,0.853-5.12,2.56-6.827,5.973
		l-0.853,0.853c-5.973,7.68-20.48,24.747-26.453,28.16c-27.307,17.92-52.053,15.36-75.093-7.68l-97.28-98.133
		c-23.04-23.04-25.6-48.64-7.68-75.093c3.413-5.12,21.333-19.627,28.16-26.453l0.853-0.853c3.413-1.707,5.12-4.267,5.973-6.827
		c1.707-5.12,0-11.947-4.267-18.773c0-0.853-34.133-58.027-62.293-72.533C99.64,69.827,95.373,68.973,91.107,68.973z"/>
	<path d="M229.347,289.987c-2.56,0-4.267-0.853-5.973-2.56c-2.56-1.707-3.413-5.12-2.56-8.533l16.213-68.267
		c-10.24-20.48-16.213-43.52-16.213-66.56C220.813,63.853,285.667-1,365.88-1s145.067,64.853,145.067,145.067
		S446.093,289.133,365.88,289.133c-24.747,0-49.493-6.827-70.827-18.773l-63.147,19.627
		C231.053,289.987,230.2,289.987,229.347,289.987z M296.76,253.293c1.707,0,3.413,0,4.267,0.853
		c19.627,11.947,42.667,17.92,65.707,17.92c70.827,0,128-57.173,128-128s-57.173-128-128-128s-128,57.173-128,128
		c0,21.333,5.12,42.667,15.36,61.44c0.853,1.707,1.707,4.267,0.853,5.973l-13.653,57.173l52.907-15.36
		C295.053,254.147,295.907,253.293,296.76,253.293z"/>
	<path d="M434.147,179.053L434.147,179.053c-2.56,0-4.267-0.853-5.973-2.56L365.88,114.2l-62.293,62.293
		c-1.707,1.707-3.413,2.56-5.973,2.56l0,0c-2.56,0-4.267-0.853-5.973-2.56l-25.6-25.6c-3.413-3.413-3.413-8.533,0-11.947
		l93.867-93.867c1.707-1.707,3.413-2.56,5.973-2.56l0,0c2.56,0,4.267,0.853,5.973,2.56l93.867,93.867
		c1.707,1.707,2.56,3.413,2.56,5.973s-0.853,4.267-2.56,5.973l-25.6,25.6C439.267,178.2,436.707,179.053,434.147,179.053z
		 M368.44,93.72c1.707,0,3.413,0.853,4.267,2.56L435,158.573l13.653-13.653L366.733,63l-82.773,81.92l13.653,13.653l62.293-62.293
		c1.707-1.707,3.413-2.56,5.973-2.56C366.733,93.72,367.587,93.72,368.44,93.72z"/>
	<path d="M417.08,230.253h-102.4c-5.12,0-8.533-3.413-8.533-8.533v-68.267c0-2.56,0.853-4.267,2.56-5.973l51.2-51.2
		c1.707-1.707,3.413-2.56,5.973-2.56l0,0c2.56,0,4.267,0.853,5.973,2.56l51.2,51.2c1.707,1.707,2.56,3.413,2.56,5.973v68.267
		C425.613,226.84,422.2,230.253,417.08,230.253z M323.213,213.187h85.333v-56.32L365.88,114.2l-42.667,42.667V213.187z"/>
</g>
</svg>